<?xml version="1.0" encoding="UTF-8"?>
<svg enable-background="new 0 0 50 50" version="1.1" viewBox="0 0 50 50" xml:space="preserve" xmlns="http://www.w3.org/2000/svg">
<rect x="-1.41" y="-1.77" width="55.54" height="52.68" fill="#5F19DD"/>
<g fill="#fff">
<path d="m16.81 12.31c-1.91 0.89-2.74 3.17-1.85 5.08s3.17 2.74 5.08 1.85l20.79-9.69c1.91-0.89 2.74-3.17 1.85-5.08s-3.17-2.74-5.08-1.85l-20.79 9.69z"/>
<path d="m11.14 30.77c-0.89-1.91-0.06-4.19 1.85-5.08l20.79-9.69c1.91-0.89 4.19-0.06 5.08 1.85s0.06 4.19-1.85 5.08l-20.79 9.69c-1.91 0.89-4.19 0.06-5.08-1.85z"/>
<path d="m7.32 44.15c-0.89-1.91-0.06-4.19 1.85-5.08l20.79-9.69c1.91-0.89 4.19-0.06 5.08 1.85s0.06 4.19-1.85 5.08l-20.79 9.69c-1.92 0.89-4.19 0.06-5.08-1.85z"/>
</g>
</svg>
