<?xml version="1.0" encoding="UTF-8"?>
<svg enable-background="new 0 0 50 50" version="1.1" viewBox="0 0 50 50" xml:space="preserve" xmlns="http://www.w3.org/2000/svg">
<path d="m11.47 43.87c0.23-0.66 1.1-0.97 1.82-0.66 2.41 1.04 5.52 1.82 8.77 1.82 5.78 0 9.15-2.64 9.15-6.45 0-3.53-2.34-5.55-8.25-7.52-7.14-2.19-11.56-5.39-11.56-10.71 0-5.89 5.65-10.27 14.15-10.27 3.77 0 6.67 0.64 8.65 1.41 0.59 0.23 0.87 0.82 0.67 1.36l-0.73 1.88c-0.24 0.62-1.04 0.92-1.74 0.66-1.61-0.61-4.02-1.26-7.04-1.26-5.97 0-8.25 3.09-8.25 5.67 0 3.53 2.66 5.27 8.7 7.29 7.4 2.47 11.17 5.55 11.17 11.11 0 5.83-5 10.88-15.32 10.88-3.72 0-7.75-0.83-10.25-1.95-0.54-0.24-0.8-0.79-0.62-1.3l0.68-1.96z"/>
<path d="m5.92 30.84h36.3c1.93 0 1.93-3 0-3h-0.83c-1.93 0-1.93 3 0 3h0.83c1.93 0 1.93-3 0-3h-36.3c-1.93 0-1.93 3 0 3z"/>
</svg>
