<?xml version="1.0" encoding="UTF-8"?>
<svg enable-background="new 0 0 50 50" version="1.1" viewBox="0 0 50 50" xml:space="preserve" xmlns="http://www.w3.org/2000/svg">
<path d="m31.82 10.26 0.41 8.97h-1.03c-0.2-1.58-0.47-2.71-0.81-3.39-0.56-1.09-1.3-1.89-2.23-2.41s-2.15-0.78-3.66-0.78h-5.17v29.23c0 2.35 0.24 3.82 0.73 4.4 0.69 0.79 1.74 1.18 3.16 1.18h1.27v1.04h-15.55v-1.04h1.3c1.55 0 2.65-0.49 3.3-1.47 0.4-0.6 0.6-1.97 0.6-4.12v-29.21h-4.41c-1.71 0-2.93 0.13-3.65 0.39-0.94 0.36-1.74 1.04-2.41 2.06s-1.07 2.39-1.19 4.12h-1.03l0.43-8.97h29.94z"/>
<path d="m48.2 22.81 0.35 6.03h-0.88c-0.17-1.06-0.4-1.82-0.69-2.27-0.48-0.73-1.11-1.27-1.91-1.62s-1.84-0.52-3.13-0.52h-4.42v19.64c0 1.58 0.21 2.57 0.62 2.96 0.59 0.53 1.49 0.8 2.71 0.8h1.09v0.7h-13.3v-0.7h1.11c1.33 0 2.27-0.33 2.82-0.99 0.34-0.4 0.51-1.33 0.51-2.77v-19.65h-3.77c-1.46 0-2.5 0.09-3.12 0.27-0.8 0.24-1.49 0.7-2.06 1.38s-0.91 1.61-1.02 2.77h-0.88l0.37-6.03h25.6z"/>
</svg>
