<?xml version="1.0" encoding="UTF-8"?>
<svg enable-background="new 0 0 50 50" version="1.1" viewBox="0 0 50 50" xml:space="preserve" xmlns="http://www.w3.org/2000/svg">
<path d="m21.67 15.32h-4.6v26.8c0 2.16 0.22 3.5 0.65 4.04 0.61 0.72 1.55 1.09 2.82 1.09h1.13v0.96h-13.84v-0.96h1.16c1.38 0 2.36-0.45 2.94-1.35 0.35-0.55 0.53-1.81 0.53-3.78v-26.8h-3.93c-1.52 0-2.61 0.12-3.25 0.36-0.83 0.33-1.55 0.96-2.14 1.89s-0.95 2.19-1.06 3.78h-0.92l0.39-8.23h26.64"/>
<path d="m20.57 13.12h26.65l0.36 8.23h-0.91c-0.18-1.45-0.42-2.48-0.72-3.1-0.5-1-1.16-1.74-1.99-2.21s-1.91-0.71-3.26-0.71h-4.6v26.8c0 2.16 0.22 3.5 0.65 4.04 0.61 0.72 1.55 1.09 2.82 1.09h1.13v0.96h-13.84v-0.96h1.16c1.38 0 2.36-0.45 2.94-1.35 0.35-0.55 0.53-1.81 0.53-3.78v-26.8h-9.81"/>
</svg>
